<svg width="28" height="27" viewBox="0 0 28 27" fill="none" xmlns="http://www.w3.org/2000/svg">
<path d="M18.6847 22.8578L16.5065 20.6797L15.3208 21.8654L18.6847 25.2294L25.4125 18.5015L24.2267 17.3157L18.6847 22.8578ZM7.75195 14.2966H13.6388V15.9786H7.75195V14.2966ZM7.75195 10.0917H17.8437V11.7737H7.75195V10.0917ZM7.75195 5.88684H17.8437V7.5688H7.75195V5.88684Z" fill="#C19333"/>
<path d="M13.6396 25.2294H5.22981C4.30221 25.2294 3.54785 24.4751 3.54785 23.5475V3.36397C3.54785 2.43637 4.30221 1.68201 5.22981 1.68201H20.3674C21.295 1.68201 22.0494 2.43637 22.0494 3.36397V15.9787H20.3674V3.36397H5.22981V23.5475H13.6396V25.2294Z" fill="#C19333"/>
</svg>
