<svg width="22" height="22" viewBox="0 0 22 22" fill="none" xmlns="http://www.w3.org/2000/svg">
<path d="M18.8571 15.7143C17.3973 15.7143 16.1779 16.72 15.8259 18.0714H6.17414C6.03273 17.5316 5.75021 17.039 5.35558 16.6444C4.96096 16.2498 4.46844 15.9673 3.92857 15.8259V13.3571C3.92857 12.4905 4.63336 11.7857 5.5 11.7857H16.5C18.2333 11.7857 19.6429 10.3761 19.6429 8.64286V6.17414C20.9943 5.82293 22 4.60271 22 3.14286C22 1.40957 20.5904 0 18.8571 0C17.1239 0 15.7143 1.40957 15.7143 3.14286C15.7143 4.60271 16.72 5.82214 18.0714 6.17414V8.64286C18.0714 9.5095 17.3666 10.2143 16.5 10.2143H5.5C3.76671 10.2143 2.35714 11.6239 2.35714 13.3571V15.8259C1.00571 16.1771 0 17.3973 0 18.8571C0 20.5904 1.40957 22 3.14286 22C4.60271 22 5.82214 20.9943 6.17414 19.6429H15.8259C16.1771 20.9943 17.3973 22 18.8571 22C20.5904 22 22 20.5904 22 18.8571C22 17.1239 20.5904 15.7143 18.8571 15.7143ZM17.2857 3.14286C17.2857 2.27621 17.9905 1.57143 18.8571 1.57143C19.7238 1.57143 20.4286 2.27621 20.4286 3.14286C20.4286 4.0095 19.7238 4.71429 18.8571 4.71429C17.9905 4.71429 17.2857 4.0095 17.2857 3.14286ZM3.14286 20.4286C2.27621 20.4286 1.57143 19.7238 1.57143 18.8571C1.57143 17.9905 2.27621 17.2857 3.14286 17.2857C4.0095 17.2857 4.71429 17.9905 4.71429 18.8571C4.71429 19.7238 4.0095 20.4286 3.14286 20.4286ZM18.8571 20.4286C17.9905 20.4286 17.2857 19.7238 17.2857 18.8571C17.2857 17.9905 17.9905 17.2857 18.8571 17.2857C19.7238 17.2857 20.4286 17.9905 20.4286 18.8571C20.4286 19.7238 19.7238 20.4286 18.8571 20.4286Z" fill="#C19333"/>
</svg>
