<svg width="21" height="21" viewBox="0 0 21 21" fill="none" xmlns="http://www.w3.org/2000/svg">
<path d="M10.5905 10.2671C12.0602 10.2671 13.2517 9.07561 13.2517 7.60587C13.2517 6.13614 12.0602 4.94468 10.5905 4.94468C9.12075 4.94468 7.92929 6.13614 7.92929 7.60587C7.92929 9.07561 9.12075 10.2671 10.5905 10.2671Z" stroke="white" stroke-width="1.5" stroke-linecap="round" stroke-linejoin="round"/>
<path d="M4.44153 17.1153C5.40428 14.654 7.793 12.9101 10.5904 12.9101C13.3879 12.9101 15.7766 14.654 16.7393 17.1153" stroke="white" stroke-width="1.5" stroke-linecap="round" stroke-linejoin="round"/>
<path d="M10.5996 1.28439H10.5905C5.39874 1.28439 1.19 5.49313 1.19 10.6849V10.6939C1.19 15.8857 5.39874 20.0944 10.5905 20.0944H10.5996C15.7913 20.0944 20 15.8857 20 10.6939V10.6849C20 5.49313 15.7913 1.28439 10.5996 1.28439Z" stroke="white" stroke-width="1.5" stroke-linecap="round" stroke-linejoin="round"/>
</svg>
