<svg width="35" height="24" viewBox="0 0 35 24" fill="none" xmlns="http://www.w3.org/2000/svg">
<path d="M6.02174 12H8.8913M26.1087 12H28.9783M1 18.1875V23H1.71739C3.14553 22.7823 4.58119 22.6126 6.02174 22.4912M1 18.1875H1.71739C2.85898 18.1875 3.9538 18.6221 4.76102 19.3957C5.56825 20.1693 6.02174 21.2185 6.02174 22.3125V22.4912M1 18.1875V5.8125M6.02174 22.4912C9.83843 22.1621 13.6679 21.9878 17.5 21.9688C20.5618 21.9688 25.0771 22.1434 28.9783 22.4912M1 5.8125V1H1.71739C3.14554 1.21768 4.5812 1.38736 6.02174 1.50875M1 5.8125H1.71739C2.85898 5.8125 3.9538 5.3779 4.76102 4.60432C5.56825 3.83073 6.02174 2.78152 6.02174 1.6875V1.50875M28.9783 22.4912C30.4188 22.6125 31.8545 22.7822 33.2826 23H34V18.1875M28.9783 22.4912V22.3125C28.9783 21.2185 29.4318 20.1693 30.239 19.3957C31.0462 18.6221 32.141 18.1875 33.2826 18.1875H34M34 18.1875V5.8125M34 5.8125V1H33.2826C31.8545 1.21784 30.4188 1.38753 28.9783 1.50875M34 5.8125H33.2826C32.141 5.8125 31.0462 5.3779 30.239 4.60432C29.4318 3.83073 28.9783 2.78152 28.9783 1.6875V1.50875M28.9783 1.50875C25.1616 1.83792 21.3321 2.01225 17.5 2.03125C13.6679 2.01225 9.83843 1.83792 6.02174 1.50875M17.5 15.4375C16.5487 15.4375 15.6363 15.0753 14.9636 14.4307C14.291 13.786 13.913 12.9117 13.913 12C13.913 11.0883 14.291 10.214 14.9636 9.56932C15.6363 8.92466 16.5487 8.5625 17.5 8.5625C18.4513 8.5625 19.3637 8.92466 20.0364 9.56932C20.709 10.214 21.087 11.0883 21.087 12C21.087 12.9117 20.709 13.786 20.0364 14.4307C19.3637 15.0753 18.4513 15.4375 17.5 15.4375Z" stroke="#D59F2E"/>
</svg>
