<svg width="18" height="18" viewBox="0 0 18 18" fill="none" xmlns="http://www.w3.org/2000/svg">
<path d="M14.0271 12.8473L17.5963 16.4157L16.4171 17.5948L12.8488 14.0257C11.5211 15.09 9.86964 15.6689 8.16797 15.6665C4.02797 15.6665 0.667969 12.3065 0.667969 8.1665C0.667969 4.0265 4.02797 0.666504 8.16797 0.666504C12.308 0.666504 15.668 4.0265 15.668 8.1665C15.6704 9.86817 15.0915 11.5196 14.0271 12.8473ZM12.3555 12.229C13.4131 11.1414 14.0037 9.68353 14.0013 8.1665C14.0013 4.94317 11.3905 2.33317 8.16797 2.33317C4.94464 2.33317 2.33464 4.94317 2.33464 8.1665C2.33464 11.389 4.94464 13.9998 8.16797 13.9998C9.68499 14.0022 11.1429 13.4116 12.2305 12.354L12.3555 12.229ZM9.14964 4.97984C8.90391 5.09084 8.68878 5.2598 8.52271 5.47222C8.35664 5.68464 8.24459 5.93418 8.19617 6.19943C8.14775 6.46468 8.16441 6.73772 8.24471 6.99511C8.32502 7.25251 8.46657 7.48658 8.65723 7.67724C8.84789 7.8679 9.08196 8.00946 9.33936 8.08976C9.59676 8.17007 9.86979 8.18672 10.135 8.1383C10.4003 8.08988 10.6498 7.97783 10.8623 7.81176C11.0747 7.64569 11.2436 7.43056 11.3546 7.18484C11.5736 7.89619 11.5483 8.66038 11.2825 9.35563C11.0168 10.0509 10.526 10.6372 9.88843 11.0212C9.25082 11.4051 8.50303 11.5646 7.76424 11.4743C7.02544 11.384 6.33814 11.0489 5.81183 10.5226C5.28553 9.99634 4.95052 9.30903 4.86017 8.57024C4.76982 7.83144 4.92934 7.08366 5.31331 6.44604C5.69727 5.80842 6.28359 5.31766 6.97884 5.05194C7.6741 4.78622 8.43828 4.76084 9.14964 4.97984Z" fill="#C19333"/>
</svg>
