<svg width="24" height="24" viewBox="0 0 24 24" fill="none" xmlns="http://www.w3.org/2000/svg">
<path d="M5.44415 7.34922C2.73822 7.96192 1.38525 8.26772 1.06296 9.30283C0.741765 10.3368 1.66354 11.4159 3.5082 13.573L3.98559 14.1307C4.50918 14.7434 4.77207 15.0503 4.88977 15.4287C5.00746 15.8082 4.96786 16.2174 4.88867 17.0347L4.81607 17.7795C4.53777 20.6582 4.39808 22.097 5.24066 22.7361C6.08324 23.3763 7.35041 22.7922 9.88255 21.6262L10.5392 21.3248C11.2586 20.9926 11.6183 20.8276 12 20.8276C12.3817 20.8276 12.7414 20.9926 13.4619 21.3248L14.1163 21.6262C16.6496 22.7922 17.9168 23.3752 18.7582 22.7372C19.6019 22.097 19.4622 20.6582 19.1839 17.7795M20.4918 13.573C22.3365 11.417 23.2582 10.3379 22.937 9.30283C22.6147 8.26772 21.2618 7.96082 18.5558 7.34922L17.8563 7.19082C17.0874 7.01702 16.7035 6.93012 16.3944 6.69582C16.0864 6.46152 15.8884 6.10622 15.4924 5.39561L15.1316 4.74881C13.738 2.2496 13.0417 1 12 1C10.9583 1 10.262 2.2496 8.86837 4.74881" stroke="#C19333" stroke-width="1.5" stroke-linecap="round"/>
</svg>
