<svg width="98" height="97" viewBox="0 0 98 97" fill="none" xmlns="http://www.w3.org/2000/svg">
<circle cx="48.9019" cy="48.4195" r="48.4195" fill="#2B6542"/>
<path d="M51.6523 30.4608C50.063 29.1205 47.7391 29.1205 46.1498 30.4607L33.3466 41.2574C32.385 42.0683 31.8301 43.2621 31.8301 44.5199V62.1786C31.8301 64.0118 33.3162 65.498 35.1494 65.498H62.6527C64.4859 65.498 65.972 64.0118 65.972 62.1786V44.5199C65.972 43.2621 65.417 42.0683 64.4556 41.2574L51.6523 30.4608ZM47.984 32.6358C48.5137 32.189 49.2884 32.189 49.8181 32.6358L62.6214 43.4324C62.9419 43.7027 63.1269 44.1007 63.1269 44.5199V62.1786C63.1269 62.4406 62.9146 62.6528 62.6527 62.6528H35.1494C34.8875 62.6528 34.6752 62.4406 34.6752 62.1786V44.5199C34.6752 44.1007 34.8602 43.7027 35.1807 43.4324L47.984 32.6358ZM56.0779 47.0545C56.6334 46.4989 56.6334 45.5983 56.0779 45.0428C55.5223 44.4872 54.6215 44.4872 54.066 45.0428L46.5301 52.5788L43.7424 49.7912C43.1869 49.2356 42.2862 49.2356 41.7306 49.7912C41.1751 50.3467 41.1751 51.2475 41.7306 51.8031L45.5242 55.5966C45.7909 55.8633 46.1528 56.0133 46.5301 56.0133C46.9074 56.0132 47.2693 55.8633 47.5359 55.5966L56.0779 47.0545Z" fill="white"/>
</svg>
