<svg width="97" height="97" viewBox="0 0 97 97" fill="none" xmlns="http://www.w3.org/2000/svg">
<circle cx="48.4361" cy="48.4195" r="48.4195" fill="#2B6542"/>
<path d="M48.8497 29.4517C59.5157 29.4517 68.1623 37.9438 68.1623 48.4194C68.1623 58.8949 59.5157 67.3872 48.8497 67.3872C38.1837 67.3872 29.5371 58.8949 29.5371 48.4194C29.5371 37.9438 38.1837 29.4517 48.8497 29.4517ZM48.8497 32.2968C39.7836 32.2968 32.434 39.5152 32.434 48.4194C32.434 57.3236 39.7836 64.542 48.8497 64.542C57.9158 64.542 65.2654 57.3236 65.2654 48.4194C65.2654 39.5152 57.9158 32.2968 48.8497 32.2968ZM48.8497 38.9355C49.6497 38.9355 50.2982 39.5725 50.2982 40.3581V46.9968H57.0576C57.8575 46.9968 58.506 47.6338 58.506 48.4194C58.506 49.2051 57.8575 49.842 57.0576 49.842H50.2982V56.4807C50.2982 57.2663 49.6497 57.9033 48.8497 57.9033C48.0498 57.9033 47.4013 57.2663 47.4013 56.4807V49.842H40.6419C39.8419 49.842 39.1934 49.2051 39.1934 48.4194C39.1934 47.6338 39.8419 46.9968 40.6419 46.9968H47.4013V40.3581C47.4013 39.5725 48.0498 38.9355 48.8497 38.9355Z" fill="white"/>
</svg>
