<svg width="98" height="97" viewBox="0 0 98 97" fill="none" xmlns="http://www.w3.org/2000/svg">
<circle cx="49.3912" cy="48.4195" r="48.4195" fill="#2B6542"/>
<path d="M45.6253 29.5161C45.8426 29.5887 46.0549 29.6751 46.2608 29.7747L48.7382 30.9726C49.4105 31.2977 50.1984 31.2977 50.8707 30.9726L53.3481 29.7747C55.9795 28.5022 59.1631 29.5658 60.4586 32.1503L60.6006 32.4582L60.7219 32.7745L61.6112 35.342C61.8526 36.0388 62.4098 36.586 63.1191 36.8231L65.7333 37.6965C68.5103 38.6242 69.9956 41.5872 69.051 44.3145C68.977 44.528 68.8892 44.7365 68.7878 44.9387L67.568 47.3718C67.237 48.0321 67.237 48.806 67.568 49.4663L68.7878 51.8994C70.0835 54.4838 69.0004 57.6106 66.3689 58.883C66.163 58.9826 65.9508 59.0691 65.7333 59.1415L63.1191 60.015C62.4098 60.2521 61.8526 60.7993 61.6112 61.496L60.7219 64.0635C59.7773 66.7908 56.7605 68.2496 53.9835 67.3219C53.7662 67.2493 53.554 67.163 53.3481 67.0634L50.8707 65.8654C50.1984 65.5403 49.4105 65.5403 48.7382 65.8654L46.2608 67.0634C43.6293 68.3359 40.4457 67.2722 39.1501 64.6877C39.0487 64.4855 38.9608 64.277 38.8869 64.0635L37.9976 61.496C37.7563 60.7993 37.1991 60.2521 36.4896 60.015L33.8755 59.1415C31.0985 58.2138 29.6132 55.2509 30.5578 52.5235C30.6318 52.3101 30.7197 52.1016 30.8211 51.8994L32.0408 49.4663C32.3718 48.806 32.3718 48.0321 32.0408 47.3718L30.8211 44.9387C29.5255 42.3542 30.6084 39.2275 33.2399 37.955C33.4459 37.8554 33.6581 37.769 33.8755 37.6965L36.4896 36.8231C37.1991 36.586 37.7563 36.0388 37.9976 35.342L38.8869 32.7745C39.8315 30.0472 42.8484 28.5884 45.6253 29.5161ZM41.6294 33.6908L40.7402 36.2583C40.2092 37.7913 38.9834 38.9952 37.4225 39.5166L34.8084 40.39C34.7096 40.423 34.6131 40.4623 34.5195 40.5075C33.3234 41.0859 32.8311 42.5072 33.42 43.682L34.6397 46.115C35.368 47.5678 35.368 49.2703 34.6397 50.7231L33.42 53.1561C33.374 53.2481 33.334 53.3429 33.3004 53.4398C32.871 54.6795 33.5462 56.0263 34.8084 56.4481L37.4225 57.3214C38.9834 57.843 40.2092 59.0469 40.7402 60.5798L41.6294 63.1473C41.663 63.2442 41.703 63.3391 41.7491 63.4309C42.338 64.6057 43.7851 65.0892 44.9812 64.5109L47.4585 63.3129C48.9377 62.5976 50.6712 62.5976 52.1503 63.3129L54.6276 64.5109C54.7212 64.5561 54.8178 64.5953 54.9165 64.6283C56.1788 65.05 57.55 64.3869 57.9795 63.1473L58.8686 60.5798C59.3997 59.0469 60.6255 57.843 62.1863 57.3214L64.8005 56.4481C64.8992 56.4151 64.9957 56.3758 65.0892 56.3305C66.2854 55.7522 66.7777 54.3309 66.1889 53.1561L64.9691 50.7231C64.2408 49.2703 64.2408 47.5678 64.9691 46.115L66.1889 43.682C66.2348 43.59 66.2748 43.4953 66.3084 43.3983C66.7377 42.1586 66.0626 40.8117 64.8005 40.39L62.1863 39.5166C60.6255 38.9952 59.3997 37.7913 58.8686 36.2583L57.9795 33.6908L57.9242 33.547L57.8597 33.4071L57.7396 33.195C57.0909 32.176 55.7491 31.785 54.6276 32.3272L52.1503 33.5251C50.6712 34.2404 48.9377 34.2404 47.4585 33.5251L44.9812 32.3272C44.8876 32.282 44.7911 32.2427 44.6924 32.2097C43.4301 31.788 42.0588 32.4511 41.6294 33.6908ZM46.0393 52.9503L56.5053 42.6712C57.071 42.1156 57.988 42.1156 58.5536 42.6712C59.0679 43.1762 59.1147 43.9665 58.6938 44.5235L58.5536 44.683L46.9661 56.0636C46.4141 56.6059 45.5366 56.6141 44.9743 56.1165L44.8292 55.9684L40.001 50.2781C39.4889 49.6745 39.5719 48.7775 40.1865 48.2745C40.7451 47.8174 41.5507 47.8432 42.0774 48.3051L42.2265 48.4568L46.0393 52.9503Z" fill="white"/>
</svg>
