<svg width="98" height="97" viewBox="0 0 98 97" fill="none" xmlns="http://www.w3.org/2000/svg">
<circle cx="48.9263" cy="48.4195" r="48.4195" fill="#2B6542"/>
<path d="M57.8222 37.4777C57.1861 37.0012 57.0638 36.1085 57.549 35.4838C58.0339 34.8591 58.943 34.7389 59.5789 35.2153C63.7437 38.3349 66.2385 43.1755 66.2385 48.4196C66.2385 57.1264 59.4123 64.2672 50.7293 64.961L52.1783 66.3815L52.3185 66.541C52.7392 67.0979 52.6924 67.8883 52.1783 68.3932C51.6127 68.9488 50.6955 68.9488 50.1298 68.3932L46.2673 64.5997L46.1271 64.4402C45.7063 63.8833 45.753 63.0929 46.2673 62.588L46.9104 61.9563C47.6995 62.0921 48.5116 62.1629 49.3403 62.1629C49.8612 62.1629 50.3755 62.135 50.8817 62.0804L50.872 62.0899C57.8842 61.3405 63.3416 55.506 63.3416 48.4196C63.3416 44.0726 61.2759 40.0646 57.8222 37.4777ZM46.5016 30.4578C45.9359 29.9022 45.9359 29.0015 46.5016 28.446C47.0672 27.8904 47.9844 27.8904 48.5501 28.446L52.4126 32.2395C52.9783 32.7951 52.9783 33.6958 52.4126 34.2513L51.7689 34.8835C50.9802 34.748 50.1687 34.6773 49.3403 34.6773C48.8181 34.6773 48.3027 34.7054 47.7953 34.7601L47.8059 34.7496C40.7947 35.4999 35.3383 41.334 35.3383 48.4196C35.3383 52.5777 37.2269 56.4295 40.4293 59.0275C41.046 59.5279 41.133 60.4247 40.6236 61.0303C40.1141 61.6362 39.2011 61.7215 38.5844 61.2211C34.7227 58.0882 32.4414 53.4356 32.4414 48.4196C32.4414 39.7136 39.2667 32.5732 47.9487 31.8783L46.5016 30.4578ZM55.1922 46.5803C55.7579 46.0248 55.7579 45.1242 55.1922 44.5685C54.6266 44.013 53.7096 44.013 53.144 44.5685L47.4087 50.2013L45.5359 48.3621C44.9704 47.8066 44.0532 47.8066 43.4876 48.3621C42.9219 48.9177 42.9219 49.8183 43.4876 50.3739L46.3845 53.219C46.9502 53.7746 47.8672 53.7746 48.4328 53.219L55.1922 46.5803ZM49.3399 59.8003C55.7396 59.8003 60.9275 54.705 60.9275 48.4196C60.9275 42.1343 55.7396 37.039 49.3399 37.039C42.9403 37.039 37.7524 42.1343 37.7524 48.4196C37.7524 54.705 42.9403 59.8003 49.3399 59.8003ZM49.3399 56.9551C44.5402 56.9551 40.6493 53.1337 40.6493 48.4196C40.6493 43.7056 44.5402 39.8841 49.3399 39.8841C54.1397 39.8841 58.0306 43.7056 58.0306 48.4196C58.0306 53.1337 54.1397 56.9551 49.3399 56.9551Z" fill="white"/>
</svg>
