<svg width="98" height="97" viewBox="0 0 98 97" fill="none" xmlns="http://www.w3.org/2000/svg">
<circle cx="49.4127" cy="48.4195" r="48.4195" fill="#2B6542"/>
<path d="M39.9296 37.0388C39.9296 35.9912 40.7788 35.142 41.8264 35.142H57.0006C58.0481 35.142 58.8973 35.9912 58.8973 37.0388V40.8323C58.8973 41.8799 58.0481 42.7291 57.0006 42.7291H41.8264C40.7788 42.7291 39.9296 41.8799 39.9296 40.8323V37.0388ZM42.7747 39.8839H56.0522V37.9871H42.7747V39.8839ZM34.2393 34.1936C34.2393 31.5747 36.3623 29.4517 38.9812 29.4517H60.7941C63.413 29.4517 65.536 31.5747 65.536 34.1936V61.2226C65.536 62.0083 64.8991 62.6452 64.1135 62.6452H37.0844C37.0844 63.6928 37.9336 64.542 38.9812 64.542H64.1135C64.8991 64.542 65.536 65.1789 65.536 65.9646C65.536 66.7502 64.8991 67.3872 64.1135 67.3872H38.9812C36.3623 67.3872 34.2393 65.2641 34.2393 62.6452V34.1936ZM37.0844 59.8001H62.6909V34.1936C62.6909 33.146 61.8417 32.2968 60.7941 32.2968H38.9812C37.9336 32.2968 37.0844 33.146 37.0844 34.1936V59.8001Z" fill="white"/>
</svg>
