<svg width="18" height="18" viewBox="0 0 18 18" fill="none" xmlns="http://www.w3.org/2000/svg">
<path d="M11.4956 18C11.0277 17.8674 10.8093 17.5477 10.6767 17.0875C9.98264 14.6075 9.26514 12.1352 8.56323 9.66291C8.52424 9.53033 8.46185 9.46794 8.32146 9.42894C5.8336 8.72704 3.35353 8.00953 0.865658 7.30763C0.421117 7.18284 0.109158 6.95667 -0.015625 6.50433V6.11439C0.109158 5.76343 0.327529 5.50607 0.69408 5.38128C5.51384 3.79029 10.318 2.19151 15.1222 0.584922C15.6915 0.397747 16.2686 0.194974 16.8379 0C16.9549 0 17.0719 0 17.1889 0C17.6178 0.109185 17.883 0.382149 18 0.811092V1.16205C17.9844 1.20104 17.961 1.24003 17.9454 1.28683C16.1906 6.55893 14.4281 11.831 12.6811 17.1031C12.5329 17.5477 12.3223 17.883 11.8466 18.0078H11.4956V18ZM0.982642 6.31716C1.06843 6.34835 1.11522 6.36395 1.16982 6.37955C3.65769 7.08925 6.14555 7.79896 8.62562 8.51646C8.75821 8.55546 8.8206 8.50087 8.89079 8.42288C11.1993 6.10659 13.5156 3.79809 15.8241 1.4896C15.8631 1.45061 15.9254 1.41941 15.9722 1.38821C15.9566 1.37262 15.941 1.35702 15.9255 1.34142C10.9653 2.9948 5.99737 4.64818 0.982642 6.31716ZM16.6664 2.06672C16.6664 2.06672 16.6508 2.05113 16.643 2.04333C16.6118 2.07452 16.5728 2.10572 16.5416 2.13692C14.2175 4.46101 11.8856 6.79289 9.5537 9.11698C9.46791 9.20277 9.45231 9.28076 9.49131 9.38995C10.201 11.8544 10.9029 14.3267 11.6048 16.7912C11.6204 16.8536 11.6438 16.9081 11.675 17.0017C13.344 11.987 14.9974 7.02686 16.6586 2.05893L16.6664 2.06672Z" fill="#C19333"/>
</svg>
