<svg width="10" height="9" viewBox="0 0 10 9" fill="none" xmlns="http://www.w3.org/2000/svg">
<path d="M8.49464 4.36377C8.67618 4.48389 8.83805 4.62012 8.98025 4.77246C9.12246 4.9248 9.245 5.0918 9.34787 5.27344C9.45074 5.45508 9.52638 5.64697 9.57479 5.84912C9.6232 6.05127 9.65043 6.25781 9.65648 6.46875C9.65648 6.81738 9.58841 7.14551 9.45225 7.45312C9.3161 7.76074 9.12851 8.02881 8.88948 8.25732C8.65046 8.48584 8.37361 8.66602 8.05894 8.79785C7.74428 8.92969 7.40541 8.99707 7.04233 9C6.76699 9 6.50074 8.96045 6.24356 8.88135C5.98638 8.80225 5.75038 8.68799 5.53556 8.53857C5.32074 8.38916 5.13012 8.21045 4.96371 8.00244C4.7973 7.79443 4.66871 7.56445 4.57794 7.3125H0.942627V0.5625H2.10447V0H2.6854V0.5625H6.75187V0H7.33279V0.5625H8.49464V4.36377ZM1.52355 1.125V2.25H7.91371V1.125H7.33279V1.6875H6.75187V1.125H2.6854V1.6875H2.10447V1.125H1.52355ZM4.44179 6.75C4.43271 6.65918 4.42817 6.56543 4.42817 6.46875C4.42817 6.2168 4.46448 5.97217 4.53709 5.73486C4.60971 5.49756 4.72014 5.27344 4.8684 5.0625H4.42817V4.5H5.00909V4.87793C5.13315 4.72852 5.27081 4.59668 5.42209 4.48242C5.57338 4.36816 5.73676 4.27002 5.91225 4.18799C6.08774 4.10596 6.27079 4.04443 6.4614 4.00342C6.65202 3.9624 6.84566 3.94043 7.04233 3.9375C7.34489 3.9375 7.63535 3.98584 7.91371 4.08252V2.8125H1.52355V6.75H4.44179ZM7.04233 8.4375C7.32371 8.4375 7.58694 8.38623 7.83202 8.28369C8.0771 8.18115 8.29192 8.04053 8.47648 7.86182C8.66105 7.68311 8.80628 7.4751 8.91218 7.23779C9.01807 7.00049 9.07254 6.74414 9.07556 6.46875C9.07556 6.19629 9.02261 5.94141 8.91671 5.7041C8.81082 5.4668 8.66559 5.25879 8.48102 5.08008C8.29646 4.90137 8.08164 4.76074 7.83656 4.6582C7.59148 4.55566 7.32674 4.50293 7.04233 4.5C6.76094 4.5 6.49771 4.55127 6.25263 4.65381C6.00756 4.75635 5.79274 4.89697 5.60817 5.07568C5.42361 5.25439 5.27838 5.4624 5.17248 5.69971C5.06658 5.93701 5.01212 6.19336 5.00909 6.46875C5.00909 6.74121 5.06204 6.99609 5.16794 7.2334C5.27384 7.4707 5.41907 7.67871 5.60363 7.85742C5.7882 8.03613 6.00302 8.17676 6.2481 8.2793C6.49317 8.38184 6.75792 8.43457 7.04233 8.4375ZM7.33279 6.1875H8.20417V6.75H6.75187V5.0625H7.33279V6.1875ZM2.10447 4.5H2.6854V5.0625H2.10447V4.5ZM3.26632 4.5H3.84725V5.0625H3.26632V4.5ZM3.26632 3.375H3.84725V3.9375H3.26632V3.375ZM2.10447 5.625H2.6854V6.1875H2.10447V5.625ZM3.26632 5.625H3.84725V6.1875H3.26632V5.625ZM5.00909 3.9375H4.42817V3.375H5.00909V3.9375ZM6.17094 3.9375H5.59002V3.375H6.17094V3.9375ZM7.33279 3.9375H6.75187V3.375H7.33279V3.9375Z" fill="#C19333"/>
</svg>
