<svg width="12" height="18" viewBox="0 0 12 18" fill="none" xmlns="http://www.w3.org/2000/svg">
<g clip-path="url(#clip0_16_303)">
<path d="M5.86957 18C5.73913 17.8697 5.5881 17.7538 5.48513 17.6018C4.47598 16.0885 3.46682 14.5752 2.48513 13.0475C1.67506 11.7804 0.967967 10.4481 0.480553 9C0.178493 8.08769 -0.0137265 7.15366 3.45521e-06 6.17619C0.0411934 3.46098 1.84669 0.984714 4.33181 0.253419C4.69566 0.144811 5.08009 0.101368 5.45767 0.0289622C5.49199 0.0217216 5.53318 0.00724055 5.56751 0C5.85584 0 6.14417 0 6.4325 0C6.76202 0.0579244 7.09154 0.101368 7.41419 0.181014C9.78948 0.774738 11.6156 2.9107 11.9451 5.45937C12.1167 6.79163 11.8627 8.05873 11.4165 9.28962C10.881 10.7667 10.1259 12.1134 9.28833 13.4095C8.34783 14.8648 7.37987 16.3057 6.41877 17.7466C6.35012 17.8479 6.22655 17.9131 6.13044 18H5.8627H5.86957ZM6 16.5229C6 16.5229 6.04806 16.4722 6.05492 16.4505C6.89245 15.1834 7.75058 13.9236 8.56751 12.642C9.35698 11.4111 10.0641 10.1223 10.5515 8.71762C10.8947 7.71842 11.1007 6.70475 10.9634 5.63315C10.5721 2.679 8.01145 0.66613 5.21053 1.12228C2.4508 1.5712 0.556068 4.41673 1.07781 7.30571C1.26316 8.31215 1.60641 9.26066 2.04577 10.173C2.746 11.6428 3.62472 12.9968 4.51717 14.3363C5.00458 15.0603 5.49199 15.7844 5.99314 16.5302L6 16.5229Z" fill="#C19333"/>
<path d="M5.99313 9.4923C4.33867 9.4923 3 8.06591 3 6.32094C3 4.58321 4.3524 3.16406 6.00687 3.16406C7.66133 3.16406 9 4.59045 9 6.33542C9 8.08039 7.6476 9.4923 5.99313 9.4923ZM4.00229 6.32818C4.00229 7.48667 4.9016 8.44242 6.00687 8.44242C7.0984 8.44242 7.99771 7.49391 8.00458 6.34266C8.00458 5.17693 7.11213 4.22842 6.00687 4.22118C4.90847 4.22118 4.00229 5.16969 4.00229 6.32818Z" fill="#C19333"/>
</g>
<defs>
<clipPath id="clip0_16_303">
<rect width="12" height="18" fill="white"/>
</clipPath>
</defs>
</svg>
