<svg width="438" height="857" viewBox="0 0 438 857" fill="none" xmlns="http://www.w3.org/2000/svg">
<path d="M70.7699 424.096C70.7699 422.09 70.4614 420.239 69.5357 418.697C67.8388 415.765 64.9077 413.914 61.3595 413.76C-79.1797 407.589 -177.758 405.121 -191.179 406.046C-195.807 406.046 -199.664 409.749 -199.973 414.531C-200.281 418.542 -197.967 422.09 -194.265 423.325C-193.648 423.633 -192.568 423.942 -192.105 423.942C-171.124 428.107 -154.617 432.426 -131.786 438.289C-106.794 444.768 -75.7859 452.636 -23.7971 464.514L-63.5986 562.167C-65.1413 565.715 -63.7529 570.035 -60.5133 572.349C-58.9706 573.429 -57.1193 573.891 -55.4224 573.891C-52.7998 573.891 -50.3315 572.811 -48.6345 570.652L68.7643 429.495C69.9985 427.953 70.6157 425.947 70.7699 423.942" fill="#2B6542" fill-opacity="0.05"/>
<path d="M-161.404 371.953C-161.404 371.953 -160.633 371.953 -160.325 371.953L22.4845 355.291C24.49 354.983 26.3412 354.057 27.7296 352.823C29.118 351.435 30.198 349.892 30.6608 348.041C31.5864 344.801 30.6609 341.407 28.3468 338.785C-68.0714 233.573 -134.561 163.535 -144.743 154.741C-147.983 151.502 -153.382 151.348 -156.931 154.433C-160.016 157.056 -160.787 161.221 -159.245 164.615C-158.936 165.386 -158.473 166.157 -158.165 166.62C-146.286 184.361 -137.647 199.017 -125.614 219.38C-112.501 241.595 -96.1486 269.209 -67.763 314.41L-164.953 355.291C-168.501 356.834 -170.66 360.691 -170.043 364.702C-169.272 369.021 -165.57 371.953 -161.559 371.953" fill="#2B6542" fill-opacity="0.05"/>
<path d="M422.503 320.273L239.694 336.934C237.689 337.242 235.837 338.168 234.449 339.402C233.061 340.79 231.981 342.333 231.518 344.184C230.592 347.424 231.518 350.818 233.832 353.441C330.25 458.652 396.74 528.69 406.922 537.484C408.619 539.181 410.933 540.106 413.092 540.106C415.252 540.106 417.412 539.335 419.109 537.792C422.194 535.17 422.966 531.004 421.423 527.61C421.115 526.839 420.652 526.068 420.343 525.605C408.464 507.864 399.825 493.208 387.792 472.845C374.679 450.63 358.327 423.016 329.941 377.815L427.131 336.934C430.679 335.391 432.839 331.534 432.222 327.523C431.451 322.895 427.131 319.81 422.657 320.273" fill="#2B6542" fill-opacity="0.05"/>
<path d="M126.462 239.127C127.696 240.67 129.393 241.75 131.09 242.213C132.016 242.521 133.096 242.675 134.021 242.675C136.335 242.675 138.495 241.904 140.346 240.207C247.563 149.034 321.458 83.9325 330.714 74.0593C334.108 70.8196 334.417 65.5745 331.486 61.872C329.018 58.7866 324.698 57.7067 321.304 59.2494C320.533 59.4037 319.761 60.0208 319.299 60.3293C301.095 71.4367 286.131 79.6129 265.304 90.8746C242.627 103.216 214.396 118.489 168.269 145.177L130.936 46.4451C129.547 42.7426 125.691 40.5829 121.68 41.0457C117.052 41.6627 113.658 45.828 114.121 50.3018L123.994 233.574C124.302 235.579 125.074 237.43 126.308 238.973" fill="#2B6542" fill-opacity="0.05"/>
<path d="M431.451 274.301C431.451 274.301 429.754 273.684 429.446 273.684C385.325 261.96 384.862 261.96 296.466 234.5L337.501 137.156C339.044 133.608 337.81 129.288 334.57 126.82C330.713 124.043 325.468 124.814 322.691 128.363L203.596 268.13C202.362 269.673 201.744 271.679 201.59 273.53C201.59 275.535 201.899 277.387 202.824 278.929C204.521 282.015 207.607 283.866 211.001 283.866C329.171 287.568 396.586 290.191 418.647 290.962C424.355 291.117 426.977 291.271 428.212 291.271C432.84 291.271 436.696 287.568 437.005 282.94C437.313 278.929 434.999 275.227 431.451 273.993" fill="#2B6542" fill-opacity="0.05"/>
<path d="M353.237 528.228L206.064 418.542C202.824 416.383 198.196 416.383 195.111 418.542C192.18 420.394 190.483 423.633 190.637 427.027C194.648 545.197 196.499 612.613 197.116 634.828C197.271 640.536 197.116 643.004 197.425 644.238C197.733 648.866 201.59 652.569 206.373 652.569H206.527C210.538 652.569 213.778 650.1 214.857 646.398C215.166 645.781 215.32 644.701 215.32 644.238C224.114 599.5 224.114 599.037 245.711 508.944L345.523 543.5C349.226 544.735 353.391 543.346 355.551 539.952C358.019 535.941 356.939 530.85 353.237 528.228Z" fill="#2B6542" fill-opacity="0.05"/>
<path d="M44.8531 276.614C46.3958 277.849 48.2471 278.62 50.2526 278.774C50.5611 278.774 50.8696 278.774 51.3324 278.774C52.875 278.774 54.4179 278.466 55.8063 277.694C58.8917 276.152 60.8971 273.22 61.0514 269.827C77.7125 43.8222 80.4893 6.95185 80.335 0.318279C80.4893 -4.3098 76.9411 -8.32079 72.313 -8.93787C68.302 -9.40068 64.5996 -7.24091 63.2112 -3.69272C62.9026 -3.07564 62.594 -1.99576 62.4398 -1.53295L60.1258 7.87747C50.0983 48.1417 39.9164 89.7944 14.1534 182.51L-81.6476 138.389C-85.1958 136.692 -89.5153 137.772 -91.9836 141.012C-94.7604 144.714 -94.2978 149.959 -90.9038 152.89L44.6989 276.614H44.8531Z" fill="#2B6542" fill-opacity="0.05"/>
<path d="M140.655 349.584C140.192 344.338 135.719 340.327 130.473 340.327H130.165C125.537 340.327 121.68 343.413 120.6 347.578C120.292 348.349 120.137 349.738 120.137 350.201L96.0714 758.551L-35.5202 709.648C-39.6854 708.259 -44.6221 710.111 -46.9362 714.122C-49.713 718.75 -48.3246 724.612 -43.8508 727.543L136.336 854.661C138.187 855.895 140.347 856.358 142.506 856.358C142.506 856.358 142.661 856.358 142.815 856.358C145.129 856.358 147.289 855.586 148.986 854.352C152.225 852.193 153.922 848.644 153.922 844.633C144.049 534.552 141.581 397.561 140.964 353.132C140.964 351.281 140.964 350.201 140.964 349.584" fill="#2B6542" fill-opacity="0.05"/>
</svg>
