<svg width="1920" height="861" viewBox="0 0 1920 861" fill="none" xmlns="http://www.w3.org/2000/svg">
<path d="M0 0.000488281L0 861L1920 861V0.000488281L0 0.000488281Z" fill="url(#paint0_linear_19_862)"/>
<mask id="mask0_19_862" style="mask-type:luminance" maskUnits="userSpaceOnUse" x="-422" y="-2163" width="2553" height="4322">
<path d="M1210.25 -2162.16L2130.99 853.9L499.31 2158.73L-421.43 -857.333L1210.25 -2162.16Z" fill="white"/>
</mask>
<g mask="url(#mask0_19_862)">
<g opacity="0.4">
<path opacity="0.25" d="M275.3 -244.482C278.74 -241.191 282.19 -237.931 285.64 -234.64C518.96 -11.5192 752.12 212.056 985.43 435.193C1202.88 643.175 1420.31 850.766 1637.84 1058.59C1637.84 1058.59 1655.79 1075.34 1664.61 1084.01C1677.07 1096.3 1689.57 1099.29 1702.3 1086.32C1714.81 1073.56 1719.04 1054.97 1717.59 1031.93C1712.21 945.973 1706.74 860.075 1702.04 774.02C1681.26 393.804 1660.76 13.5714 1640.15 -366.645C1637.25 -419.914 1628.77 -440.883 1609.01 -443.579C1589.23 -446.259 1578.65 -427.437 1570.81 -375.03C1534.49 -132.209 1498.03 110.581 1462.21 353.59C1458.63 377.834 1455.28 385.247 1438.49 373.399C1333.9 299.584 1228.77 227.603 1123.79 155.089C985.43 59.4902 847.04 -35.9831 708.69 -131.613C591.47 -212.653 474.25 -293.739 357.09 -374.967C239.9 -456.21 122.84 -537.783 5.63984 -618.947C-15.1902 -633.381 -31.9902 -625.655 -40.5402 -599.326C-49.1102 -572.919 -43.8202 -548.408 -23.7202 -529.179C35.3098 -472.76 226.51 -290.809 285.63 -234.625" fill="#6B9A5C"/>
</g>
</g>
<path opacity="0.48" d="M266.19 -215.96C269.7 -212.841 273.21 -209.738 276.72 -206.619C514.34 5.06181 751.82 217.181 989.43 428.878C1210.89 626.187 1432.33 823.105 1653.86 1020.27C1653.86 1020.27 1672.14 1036.15 1681.12 1044.38C1693.82 1056.05 1706.37 1058.43 1718.84 1044.85C1731.09 1031.48 1734.95 1012.7 1733.04 989.745C1725.96 904.098 1718.79 818.497 1712.39 732.709C1684.1 353.684 1656.08 -25.3732 1627.96 -404.399C1624.01 -457.511 1615.11 -478.057 1595.31 -479.781C1575.49 -481.489 1565.29 -462.165 1558.49 -409.414C1526.99 -164.947 1495.36 79.5033 1464.36 324.142C1461.26 348.559 1458.06 356.113 1441.04 345.095C1335.04 276.39 1228.53 209.565 1122.17 142.191C981.99 53.3626 841.77 -35.3248 701.6 -124.2C582.83 -199.504 464.06 -274.855 345.35 -350.346C226.61 -425.854 107.99 -501.706 -10.7601 -577.135C-31.8601 -590.55 -48.5101 -582.009 -56.5301 -555.288C-64.5801 -528.473 -58.8001 -504.229 -38.3301 -485.987C21.7899 -432.467 216.5 -259.903 276.7 -206.619" stroke="#C19333" stroke-width="0.5" stroke-miterlimit="10"/>
<defs>
<linearGradient id="paint0_linear_19_862" x1="1987.33" y1="430.508" x2="399.26" y2="430.508" gradientUnits="userSpaceOnUse">
<stop stop-color="#12332D"/>
<stop offset="0.81" stop-color="#2B663F"/>
</linearGradient>
</defs>
</svg>
